<svg width="16" height="15" viewBox="0 0 16 15" fill="none" xmlns="http://www.w3.org/2000/svg">
<path d="M11.9213 1.38905L11.9213 1.38907L11.9266 1.3908C14.1786 2.11869 15.0831 4.60812 14.3569 6.92217C13.9332 8.12743 13.2426 9.22684 12.3402 10.125C11.0239 11.3918 9.55794 12.5418 8.00355 13.507C6.44451 12.5197 5.00089 11.395 3.66871 10.1181C2.77138 9.21867 2.07986 8.12508 1.6493 6.91936C0.912264 4.61042 1.8124 2.11862 4.09678 1.37541L4.0968 1.37548L4.10572 1.37243C4.44272 1.2569 4.83517 1.2123 5.24241 1.2123C6.17462 1.2123 6.84051 1.68281 7.63634 2.28938L7.99946 2.56614L8.36301 2.28995C9.17202 1.67534 9.82449 1.2123 10.772 1.2123C11.1708 1.2123 11.5593 1.26828 11.9213 1.38905Z" stroke="black" stroke-width="1.2"/>
</svg>
