<svg width="16" height="15" viewBox="0 0 16 15" fill="none" xmlns="http://www.w3.org/2000/svg">
<path d="M11.9592 1.36309L11.9592 1.36311L11.9635 1.36449C14.2966 2.11858 15.2117 4.68984 14.4708 7.04791C14.0411 8.27109 13.3403 9.38697 12.4241 10.2986C11.0838 11.5886 9.58878 12.7583 8.00288 13.7364C6.41256 12.7351 4.94115 11.592 3.5847 10.2917C2.67386 9.37903 1.97218 8.26923 1.53558 7.04567C0.783226 4.69169 1.6949 2.11852 4.05962 1.34918L4.05964 1.34923L4.06677 1.34679C4.42074 1.22544 4.82758 1.18018 5.24238 1.18018C6.21968 1.18018 6.91521 1.67676 7.70905 2.28181L7.99955 2.50322L8.29039 2.28227C9.09758 1.66904 9.77957 1.18017 10.7719 1.18018C11.1819 1.18018 11.5833 1.2377 11.9592 1.36309Z" fill="black" stroke="black" stroke-width="0.96"/>
</svg>
