<svg width="16" height="16" viewBox="0 0 16 16" fill="none" xmlns="http://www.w3.org/2000/svg">
<path d="M12.6876 4.40601H3.31249H0.800049V15.206H15.2V4.40601H12.6876Z" stroke="black" stroke-width="1.2"/>
<path d="M12.0001 4.00598C11.1105 2.10557 10.2616 1.00598 8.00007 1.00598C5.7384 1.00598 4.88968 2.1055 4.00006 4.00598" stroke="black" stroke-width="1.2" stroke-linecap="round"/>
<path d="M5.83672 12.406V7.68521L4.66072 8.65121L4.07272 7.95401L5.92912 6.45881H6.84472V12.406H5.83672ZM8.35967 12.406V11.482L10.6529 9.23081C11.0561 8.83881 11.2577 8.44961 11.2577 8.06321C11.2577 7.78881 11.1681 7.56761 10.9889 7.39961C10.8097 7.23161 10.5829 7.14761 10.3085 7.14761C10.0285 7.14761 9.79887 7.24281 9.61967 7.43321C9.44607 7.61801 9.33967 7.86161 9.30047 8.16401L8.31767 8.01281C8.37927 7.51441 8.59487 7.10561 8.96447 6.78641C9.33407 6.46721 9.78767 6.30761 10.3253 6.30761C10.8741 6.30761 11.3417 6.46161 11.7281 6.76961C12.1145 7.07761 12.3077 7.50321 12.3077 8.04641C12.3077 8.39921 12.2237 8.71561 12.0557 8.99561C11.8933 9.27001 11.6581 9.55281 11.3501 9.84401L9.63647 11.482H12.3161V12.406H8.35967Z" fill="black"/>
</svg>
